<svg width="1101" height="148" viewBox="0 0 1101 148" fill="none" xmlns="http://www.w3.org/2000/svg">
<g clip-path="url(#clip0_15121_18130)">
<path fill-rule="evenodd" clip-rule="evenodd" d="M148.283 50.3701C148.283 76.3801 132.063 83.9401 132.063 83.9401C141.583 88.4001 148.303 98.3201 148.463 108.69V136.13C148.463 139.63 145.303 142.47 141.463 142.47H122.133C118.243 142.47 115.133 139.63 115.133 136.13V108.78C115.133 103.99 110.873 100.11 105.623 100.11H43.1131C37.8631 100.11 33.6031 103.99 33.6031 108.78V136.13C33.6031 139.63 30.4431 142.47 26.6031 142.47H7.27307C3.39307 142.47 0.273071 139.63 0.273071 136.13V108.69C0.273071 87.2201 19.3731 69.8101 42.9431 69.8101H85.0731C115.073 69.7701 115.073 56.1701 115.073 50.3701C115.073 44.5701 115.073 30.9401 85.0731 30.9401L6.39307 30.8101C2.50307 30.8101 -0.606934 27.9601 -0.606934 24.4601V6.85007C-0.606934 3.34007 2.55307 0.510071 6.39307 0.510071L85.0731 0.640076C124.063 0.690076 148.283 19.7501 148.283 50.3701ZM308.649 31.5939C310.334 31.5939 311.949 30.9251 313.14 29.7345C314.33 28.5439 314.999 26.929 314.999 25.2453V7.639C314.999 5.95523 314.33 4.34043 313.14 3.14982C311.949 1.95922 310.334 1.29034 308.649 1.29034H204.169C193.855 1.29034 183.963 5.38681 176.67 12.6786C169.377 19.9703 165.279 29.86 165.279 40.1721V104.379C165.282 114.689 169.381 124.576 176.674 131.866C183.967 139.155 193.857 143.25 204.169 143.25H308.649C309.483 143.252 310.308 143.089 311.079 142.771C311.849 142.453 312.549 141.986 313.139 141.397C313.729 140.809 314.197 140.109 314.516 139.34C314.835 138.57 314.999 137.745 314.999 136.912V119.305C314.999 117.622 314.33 116.007 313.14 114.816C311.949 113.626 310.334 112.957 308.649 112.957H207.439C205.14 112.957 202.935 112.043 201.309 110.418C199.683 108.792 198.769 106.588 198.769 104.289V87.4221H293.849C295.534 87.4221 297.149 86.7533 298.34 85.5626C299.53 84.372 300.199 82.7572 300.199 81.0735V63.4672C300.197 61.7852 299.527 60.1729 298.336 58.9845C297.146 57.796 295.532 57.1285 293.849 57.1285H198.739V40.2521C198.741 39.1121 198.967 37.9835 199.405 36.9311C199.843 35.8786 200.485 34.9229 201.293 34.1186C202.101 33.3144 203.06 32.6774 204.115 32.2442C205.169 31.811 206.299 31.59 207.439 31.5939H258.044H308.649ZM331.541 39.5101C331.541 17.971 349.002 0.510071 370.541 0.510071H438.966C466.855 0.510071 489.463 23.1186 489.463 51.0076C489.463 78.8965 466.855 101.505 438.966 101.505H364.658V136.47C364.658 139.784 361.972 142.47 358.658 142.47H337.541C334.227 142.47 331.541 139.784 331.541 136.47V101.505V63.7635V39.5101ZM372.658 31.0581C368.24 31.0581 364.658 34.6398 364.658 39.0581V72.7119H436.424C446.918 72.7119 455.424 64.2053 455.424 53.7119V50.0581C455.424 39.5646 446.918 31.0581 436.424 31.0581H372.658ZM505.463 41.5101C505.463 18.8664 523.819 0.510071 546.463 0.510071H631.823C654.467 0.510071 672.823 18.8664 672.823 41.5101V101.47C672.823 124.114 654.467 142.47 631.823 142.47H546.463C523.819 142.47 505.463 124.114 505.463 101.47V41.5101ZM540.538 51.9264C540.538 39.7761 550.388 29.9264 562.538 29.9264H615.749C627.899 29.9264 637.749 39.7761 637.749 51.9264V91.0533C637.749 103.204 627.899 113.053 615.749 113.053H562.538C550.388 113.053 540.538 103.204 540.538 91.0533V51.9264ZM909.962 0.580041H929.162V0.510071C934.842 0.510071 937.122 5.31804 935.962 8.57666L931.712 19.702L891.712 124.758L886.472 138.472C885.242 141.68 882.262 142.47 878.112 142.47H848.362C844.212 142.47 841.232 141.67 840.002 138.472L837.092 129.785L808.552 45.4811L780.022 129.785L777.102 138.472C775.882 141.68 772.892 142.47 768.742 142.47H738.992C734.842 142.47 731.862 141.67 730.642 138.472L725.402 124.758L685.402 19.702L681.152 8.57666C679.902 5.38801 682.232 0.580041 687.902 0.580041H707.102C711.242 0.580041 714.232 1.3797 715.452 4.57835L718.952 13.7245L755.222 108.684L785.432 19.492L790.482 4.57835C791.712 1.3797 794.692 0.580041 798.842 0.580041H810.212H818.212C822.362 0.580041 825.352 1.3797 826.572 4.57835L832.172 21.1214L861.832 108.684L898.112 13.7245L901.602 4.57835C902.822 1.3797 905.812 0.580041 909.962 0.580041ZM1101.15 50.3701C1101.15 76.3801 1084.93 83.9401 1084.93 83.9401C1094.45 88.4001 1101.17 98.3201 1101.33 108.69V136.13C1101.33 139.63 1098.17 142.47 1094.33 142.47H1075C1071.11 142.47 1068 139.63 1068 136.13V108.78C1068 103.99 1063.74 100.11 1058.49 100.11H995.976C990.726 100.11 986.466 103.99 986.466 108.78V136.13C986.466 139.63 983.306 142.47 979.466 142.47H960.136C956.256 142.47 953.136 139.63 953.136 136.13V108.69C953.136 87.2201 972.236 69.8101 995.806 69.8101H1037.94C1067.94 69.7701 1067.94 56.1701 1067.94 50.3701C1067.94 44.5701 1067.94 30.9401 1037.94 30.9401L959.256 30.8101C955.366 30.8101 952.256 27.9601 952.256 24.4601V6.85007C952.256 3.34007 955.416 0.510071 959.256 0.510071L1037.94 0.640076C1076.93 0.690076 1101.15 19.7501 1101.15 50.3701Z" fill="#FAFAFA"/>
</g>
<defs>
<clipPath id="clip0_15121_18130">
<rect width="1100" height="147.385" fill="white" transform="translate(0.525391 0.510071)"/>
</clipPath>
</defs>
</svg>
